<?xml version="1.0" standalone="no"?>
<!DOCTYPE svg PUBLIC "-//W3C//DTD SVG 20010904//EN"
  "http://www.w3.org/TR/2001/REC-SVG-20010904/DTD/svg10.dtd">
<svg height="400.000000pt" preserveAspectRatio="xMidYMid meet"
     version="1.0" viewBox="0 0 400.000000 400.000000" width="400.000000pt"
     xmlns="http://www.w3.org/2000/svg">
  <metadata>
    Created by potrace 1.14, written by Peter Selinger 2001-2017
  </metadata>
  <g fill="#000000"
     stroke="none" transform="translate(0.000000,400.000000) scale(0.100000,-0.100000)">
    <path d="M702 3297 l-702 -702 0 -395 0 -395 424 424 424 424 7 115 c27 427
217 719 540 828 95 32 267 44 355 25 l54 -12 196 196 195 195 -395 0 -395 0
-703 -703z"/>
    <path d="M3357 3752 l-217 -217 0 -395 0 -395 415 415 c228 228 415 420 415
426 0 6 -17 45 -37 85 -50 101 -161 212 -262 262 -40 20 -79 37 -85 37 -6 0
-109 -98 -229 -218z"/>
    <path d="M2540 3090 c0 -207 -4 -360 -9 -360 -5 0 -64 66 -132 148 -162 195
-354 386 -453 451 -234 152 -513 132 -696 -50 -182 -182 -250 -566 -154 -869
78 -246 301 -419 542 -420 l52 0 -2 237 -3 238 -46 6 c-128 19 -193 95 -193
229 0 87 21 138 78 188 68 59 178 67 272 19 71 -37 167 -141 464 -502 145
-176 277 -335 294 -352 l30 -33 178 0 178 0 0 715 0 715 -200 0 -200 0 0 -360z"/>
    <path d="M1943 2338 l-63 -64 0 -242 0 -242 -149 0 c-91 0 -180 6 -228 15
l-78 15 -80 -80 -80 -80 395 0 395 0 154 154 154 154 -164 198 c-90 109 -171
206 -179 217 -14 17 -19 14 -77 -45z"/>
    <path d="M3568 1763 l-428 -428 0 -288 0 -287 -288 0 -287 0 -380 -380 -380
-380 395 0 395 0 703 703 702 702 -2 393 -3 392 -427 -427z"/>
    <path d="M1080 1226 l0 -233 138 -226 137 -226 213 -1 c116 0 212 3 212 6 0 3
-52 92 -115 198 -63 105 -115 197 -115 204 0 9 152 12 695 12 l695 0 0 250 0
250 -930 0 -930 0 0 -234z"/>
    <path d="M451 846 l-424 -424 17 -46 c47 -122 170 -255 290 -312 39 -19 75
-34 81 -34 5 0 151 141 324 314 l313 313 -84 134 -83 134 -5 173 -5 172 -424
-424z"/>
  </g>
</svg>
